<svg id="visual" viewBox="0 0 900 450" width="900" height="450" xmlns="http://www.w3.org/2000/svg" xmlns:xlink="http://www.w3.org/1999/xlink" version="1.1"><rect x="0" y="0" width="900" height="450" fill="#fbf5e5"></rect><path d="M0 276L129 290L257 263L386 306L514 278L643 332L771 305L900 323L900 451L771 451L643 451L514 451L386 451L257 451L129 451L0 451Z" fill="#45a29e"></path><path d="M0 303L129 348L257 350L386 311L514 294L643 312L771 312L900 301L900 451L771 451L643 451L514 451L386 451L257 451L129 451L0 451Z" fill="#007d97"></path><path d="M0 330L129 381L257 346L386 342L514 381L643 356L771 335L900 351L900 451L771 451L643 451L514 451L386 451L257 451L129 451L0 451Z" fill="#005683"></path><path d="M0 367L129 400L257 391L386 397L514 399L643 393L771 375L900 361L900 451L771 451L643 451L514 451L386 451L257 451L129 451L0 451Z" fill="#002f67"></path><path d="M0 399L129 397L257 405L386 417L514 401L643 420L771 404L900 408L900 451L771 451L643 451L514 451L386 451L257 451L129 451L0 451Z" fill="#020243"></path></svg>